#!OML:ASF X:\für Bonn\!DataBase\2005_08_11_Bastian_Final\c3d\Bastian.ASF
:FULLY-SPECIFIED
:DEGREES
48
root -2.00287 16.417 -10.1573 168.826 -16.2993 -178.573
lowerback 14.514 -4.0226 -6.05329
upperback 7.83601 -7.14833 -1.16545
thorax 0.767068 -4.19686 3.08249
lowerneck -3.5738 -7.70877 -3.46241
upperneck -9.78831 -8.24124 16.4594
head -1.37574 -3.88947 5.48248
rclavicle 4.9895e-014 3.57812e-014
rhumerus -13.2301 33.3753 -89.2929
rradius 128.099
rwrist 8.22569
rhand -25.1108 15.7432
rfingers 7.12502
rthumb 1.40459 -14.2319
lclavicle 4.9895e-014 3.57812e-014
lhumerus -9.63073 -55.4224 100.196
lradius 120.307
lwrist 38.8022
lhand -4.96447 -19.3808
lfingers 7.12502
lthumb 20.8275 9.52127
rfemur -36.1372 -9.13855 19.093
rtibia 49.5955
rfoot -199.778 -185.986
rtoes 0.321387
lfemur 26.6015 -5.53694 -17.037
ltibia 18.0352
lfoot -21.4646 -23.5091
ltoes 5.60017
49
root -1.99932 16.3882 -10.2757 168.812 -16.7011 -178.583
lowerback 14.5634 -4.05244 -6.00634
upperback 7.79957 -7.17652 -1.15908
thorax 0.700047 -4.20266 3.07489
lowerneck -3.42068 -7.80497 -3.61887
upperneck -9.96946 -8.33369 16.5865
head -1.42964 -3.9423 5.55468
rclavicle 9.62118e-014 3.65764e-014
rhumerus -13.53 33.2998 -89.4384
rradius 128.166
rwrist 8.09651
rhand -24.9496 15.7571
rfingers 7.12502
rthumb 1.56027 -14.2169
lclavicle 9.62118e-014 3.65764e-014
lhumerus -9.46894 -55.5968 100.306
lradius 120.381
lwrist 38.5837
lhand -5.2871 -19.3605
lfingers 7.12502
lthumb 20.5175 9.57529
rfemur -35.6351 -8.69087 18.9294
rtibia 48.645
rfoot -199.161 -186.695
rtoes -0.404362
lfemur 27.2739 -5.90599 -17.0438
ltibia 17.4722
lfoot -21.2358 -23.4634
ltoes 6.4148
50
root -1.99555 16.3574 -10.3976 168.8 -17.0342 -178.608
lowerback 14.5586 -4.06508 -5.93576
upperback 7.76301 -7.17423 -1.1691
thorax 0.653325 -4.19223 3.02844
lowerneck -3.24919 -7.90475 -3.84061
upperneck -10.1331 -8.42803 16.792
head -1.47311 -3.99499 5.66168
rclavicle -9.85972e-014 -8.74653e-015
rhumerus -13.8101 33.1922 -89.6038
rradius 128.196
rwrist 8.02389
rhand -24.7973 15.7877
rfingers 7.12502
rthumb 1.70733 -14.1853
lclavicle -9.85972e-014 -8.74653e-015
lhumerus -9.30975 -55.7756 100.379
lradius 120.482
lwrist 38.3439
lhand -5.55205 -19.3133
lfingers 7.12502
lthumb 20.2629 9.64979
rfemur -35.1743 -8.25023 18.7934
rtibia 47.9128
rfoot -198.114 -187.234
rtoes -0.356212
lfemur 27.9983 -6.3246 -17.14
ltibia 16.8899
lfoot -20.9685 -23.2474
ltoes 7.25326
51
root -1.99172 16.3253 -10.5227 168.739 -17.3137 -178.609
lowerback 14.5363 -4.0634 -5.82716
upperback 7.7515 -7.15052 -1.17989
thorax 0.635442 -4.17323 2.9544
lowerneck -3.06015 -7.99967 -3.99849
upperneck -10.3294 -8.51823 16.9187
head -1.53689 -4.04908 5.73645
rclavicle 7.7526e-015 -3.49861e-014
rhumerus -14.0668 33.0895 -89.756
rradius 128.235
rwrist 7.99551
rhand -24.6341 15.7988
rfingers 7.12502
rthumb 1.86491 -14.1728
lclavicle 7.7526e-015 -3.49861e-014
lhumerus -9.1111 -55.9383 100.409
lradius 120.557
lwrist 38.0545
lhand -5.80436 -19.2922
lfingers 7.12502
lthumb 20.0204 9.69644
rfemur -34.7248 -7.86778 18.7204
rtibia 47.4006
rfoot -196.822 -187.577
rtoes -0.112444
lfemur 28.791 -6.81305 -17.2761
ltibia 16.3339
lfoot -20.6899 -22.9045
ltoes 7.92166
52
root -1.98802 16.2903 -10.6477 168.681 -17.5214 -178.609
lowerback 14.5104 -4.06105 -5.69368
upperback 7.71692 -7.1196 -1.18758
thorax 0.591716 -4.1471 2.87068
lowerneck -2.84711 -6.49465 -4.29345
upperneck -10.9207 -8.8734 16.9172
head -1.71639 -5.33274 5.84211
rclavicle -1.92821e-014 -4.77083e-014
rhumerus -14.3324 33.0471 -89.9191
rradius 128.237
rwrist 7.94771
rhand -24.4508 15.8214
rfingers 7.12502
rthumb 2.04201 -14.1486
lclavicle -1.92821e-014 -4.77083e-014
lhumerus -8.92816 -56.0456 100.427
lradius 120.648
lwrist 37.736
lhand -6.02552 -19.2771
lfingers 7.12502
lthumb 19.8078 9.7336
rfemur -34.4038 -7.50381 18.6652
rtibia 47.2352
rfoot -195.519 -187.691
rtoes 0.768147
lfemur 29.3804 -7.29654 -17.4369
ltibia 16.2895
lfoot -20.6283 -22.5478
ltoes 8.70015
53
root -1.98456 16.2551 -10.7724 168.615 -17.6241 -178.611
lowerback 14.4925 -4.02417 -5.53685
upperback 7.67065 -7.04023 -1.19691
thorax 0.524075 -4.09483 2.76884
lowerneck -2.61838 -6.56668 -4.48502
upperneck -11.0929 -8.94428 17.0525
head -1.77969 -5.38026 5.92907
rclavicle 5.18828e-014 3.65764e-014
rhumerus -14.5767 33.0091 -90.0774
rradius 128.199
rwrist 7.93642
rhand -24.2864 15.7938
rfingers 7.12502
rthumb 2.20078 -14.1746
lclavicle 5.18828e-014 3.65764e-014
lhumerus -8.81551 -56.1786 100.477
lradius 120.736
lwrist 37.3848
lhand -6.22866 -19.3105
lfingers 7.12502
lthumb 19.6125 9.72019
rfemur -34.1716 -7.25771 18.6735
rtibia 47.2862
rfoot -194.15 -187.614
rtoes 2.13591
lfemur 29.8981 -7.76418 -17.6321
ltibia 16.4603
lfoot -20.5474 -22.1869
ltoes 9.65398
54
root -1.98193 16.1848 -10.8948 168.513 -17.6209 -178.576
lowerback 14.4615 -3.95976 -5.30002
upperback 7.64358 -6.91683 -1.21762
thorax 0.469205 -4.02036 2.60379
lowerneck -2.41153 -6.63141 -4.64786
upperneck -11.2455 -9.01017 17.2037
head -1.83445 -5.42642 6.01502
rclavicle -1.22849e-013 2.54444e-014
rhumerus -14.8016 32.9528 -90.2758
rradius 128.1
rwrist 7.93379
rhand -24.1127 15.818
rfingers 7.12502
rthumb 2.36855 -14.1486
lclavicle -1.22849e-013 2.54444e-014
lhumerus -8.67845 -56.3418 100.44
lradius 120.814
lwrist 37.0415
lhand -6.41473 -19.3775
lfingers 7.12502
lthumb 19.4336 9.67131
rfemur -34.1643 -7.1359 18.7785
rtibia 47.6475
rfoot -192.71 -187.383
rtoes 3.83418
lfemur 30.2854 -8.14235 -17.7699
ltibia 16.9513
lfoot -20.3574 -21.9822
ltoes 11.0169
55
root -1.98056 16.1595 -11.0196 168.365 -17.5363 -178.542
lowerback 14.4901 -3.88016 -5.05404
upperback 7.6053 -6.77708 -1.22856
thorax 0.371016 -3.93695 2.44845
lowerneck -2.18164 -6.6774 -4.82469
upperneck -11.3944 -9.04872 17.3297
head -1.89556 -5.45669 6.09744
rclavicle -4.82053e-014 -7.95139e-015
rhumerus -14.9972 32.9793 -90.4468
rradius 127.937
rwrist 7.96861
rhand -23.979 15.7476
rfingers 7.12502
rthumb 2.49767 -14.2176
lclavicle -4.82053e-014 -7.95139e-015
lhumerus -8.61539 -56.4945 100.45
lradius 120.896
lwrist 36.7304
lhand -6.61932 -19.501
lfingers 7.12502
lthumb 19.2369 9.5676
rfemur -33.9971 -7.18825 18.9471
rtibia 48.0603
rfoot -191.386 -186.955
rtoes 4.86406
lfemur 30.5188 -8.45443 -17.9221
ltibia 17.6791
lfoot -19.9953 -21.7829
ltoes 12.3951
56
root -1.97876 16.1349 -11.1453 168.196 -17.3998 -178.517
lowerback 14.552 -3.78468 -4.80294
upperback 7.57102 -6.62028 -1.2567
thorax 0.256868 -3.84565 2.27282
lowerneck -2.03902 -6.72267 -4.93464
upperneck -11.4777 -9.09614 17.4316
head -1.92668 -5.48753 6.15505
rclavicle -2.67365e-014 -2.38542e-014
rhumerus -15.2128 33.0179 -90.6836
rradius 127.704
rwrist 8.03324
rhand -23.8897 15.7738
rfingers 7.12502
rthumb 2.58387 -14.1903
lclavicle -2.67365e-014 -2.38542e-014
lhumerus -8.61701 -56.6661 100.474
lradius 120.968
lwrist 36.4266
lhand -6.81433 -19.6512
lfingers 7.12502
lthumb 19.0494 9.43593
rfemur -33.8551 -7.40118 19.1505
rtibia 48.5909
rfoot -190.253 -186.357
rtoes 5.62035
lfemur 30.6614 -8.72813 -18.0785
ltibia 18.6658
lfoot -19.5192 -21.594
ltoes 13.8141
